<svg width="418" height="519" viewBox="0 0 418 519" fill="none" xmlns="http://www.w3.org/2000/svg">
<path d="M397.703 8.83979C400.256 5.7844 402.629 2.53861 405.711 0C402.45 6.95397 398.178 13.8263 391.782 18.2236C388.495 21.2064 385.843 24.833 382.323 27.562C379.466 33.5005 372.614 35.7762 369.891 41.7964C369.461 41.47 368.61 40.8081 368.18 40.4817C362.071 46.1029 355.917 51.6788 349.719 57.1912C348.635 58.1432 347.766 59.3037 347.085 60.573C346.62 59.8295 346.181 59.0679 345.742 58.3154C343.198 60.6274 340.672 63.0028 338.746 65.8859C339.337 66.3846 339.92 66.8832 340.502 67.4C337.832 69.1861 335.62 71.5615 333.685 74.1182C337.967 71.5071 341.487 67.8352 345.186 64.4806C352.603 57.5267 359.787 50.3279 367.257 43.4283C367.472 43.7456 367.893 44.3803 368.099 44.6976C371.207 42.1499 374.315 39.6023 377.262 36.8642C377.253 37.3175 377.236 38.206 377.227 38.6594C379.188 37.5986 381.293 36.5287 382.332 34.3981C382.825 35.1053 383.309 35.8306 383.801 36.5469C385.924 34.1715 388.495 32.2856 390.877 30.1822C393.448 27.3354 396.055 24.4794 399.199 22.2581C397.362 26.7551 393.126 29.5294 390.949 33.8088C389.758 35.9757 388.154 37.8615 386.417 39.5932L387.106 36.3293C385.145 38.197 382.762 39.8289 381.526 42.3131L381.992 43.7003C376.761 49.666 370.007 54.3081 365.761 61.1079C372.506 57.572 377.28 51.3887 382.807 46.2933C386.202 43.3195 388.163 39.0401 391.818 36.3293C397.801 31.4878 401.895 24.7605 407.502 19.5382C407.126 23.7541 403.883 26.6372 401.984 30.146C404.098 28.2964 405.791 26.0298 407.789 24.0533C407.099 27.1994 405.639 30.0825 404.797 33.1832C407.081 31.2883 408.935 28.9401 410.843 26.6644C409.876 28.5956 408.864 30.5086 407.959 32.467C411.515 29.8286 414.426 26.4287 418 23.7994C415.304 27.417 412.07 30.5539 409.025 33.8541C406.042 36.9186 403.821 40.6177 401.196 43.9814C400.426 49.2218 395.741 52.4313 392.929 56.5565C389.525 61.5431 385.279 65.895 382.243 71.1354C378.749 75.0793 377.218 80.3651 373.456 84.1367C371.028 86.4577 371.028 90.2747 368.448 92.4416C363.262 97.5007 357.718 102.197 352.728 107.447C351.009 112.905 346.037 116.005 341.989 119.577C345.849 127.937 350.829 135.852 353.042 144.9C357.109 158.019 360.02 171.519 361.318 185.219C361.471 192.227 362.187 199.19 362.805 206.162C362.572 214.748 361.381 223.37 358.801 231.575C357.243 237.07 356.267 242.718 354.995 248.294C354.377 250.334 355.863 252.492 354.681 254.45C351.985 259.872 350.704 266.155 346.557 270.715C346.691 271.83 346.763 272.955 346.772 274.088C340.636 286.844 332.324 298.513 322.489 308.604C322.569 308.994 322.739 309.783 322.829 310.172C320.16 313.201 316.81 315.549 314.257 318.695C313.101 320.762 309.94 319.393 308.918 321.506C306.787 325.776 302.111 327.598 298.143 329.674C296.217 330.363 296.28 333.165 294.264 333.682C291.864 334.38 289.965 335.948 288.236 337.698C285.262 339.53 281.554 339.62 278.526 341.388C273.591 344.562 267.849 345.967 262.376 347.898C256.93 349.086 251.538 350.908 245.913 351.035C261.911 345.958 278.473 340.872 291.918 330.336C290.538 330.744 289.177 331.207 287.824 331.669C283.847 330.382 282.7 335.649 279.144 336.012C271.916 338.242 265.628 342.884 258.319 344.852C262.744 341.18 268.458 339.548 272.919 335.885C275.839 333.328 279.807 332.784 282.924 330.581C289.562 325.803 296.36 321.052 301.681 314.742C300.337 315.313 299.092 316.093 297.964 317.036C297.578 316.682 297.202 316.329 296.835 315.975C300.66 313.844 303.571 310.472 306.813 307.579C313.961 300.943 320.312 293.445 325.669 285.258C325.337 285.222 324.674 285.158 324.343 285.131C321.082 289.483 318.091 294.052 314.57 298.205C310.817 301.995 306.303 304.896 302.272 308.35C300.221 310.408 298.035 314.026 294.739 313.455C296.181 312.095 297.686 310.816 299.048 309.375C298.071 309.647 297.158 310.064 296.316 310.626C285.164 319.556 273.251 327.879 259.994 333.238C263.872 330.164 268.494 328.278 272.632 325.613C276.171 323.246 280.443 321.596 282.763 317.779C274.254 321.868 266.264 327.208 257.244 330.146C259.403 328.487 261.794 327.208 264.034 325.667C260.155 325.912 257.011 328.423 253.491 329.792C248.887 331.606 244.328 333.636 239.509 334.77C242.841 332.168 246.925 330.88 250.642 328.976C250.114 328.84 249.039 328.559 248.502 328.423C252.497 325.794 256.115 322.612 260.388 320.427C265.798 317.589 270.698 313.926 275.597 310.308C278.58 308.015 282.163 306.201 284.017 302.729C280.864 303.717 278.553 306.138 276.108 308.223C270.787 312.385 264.374 314.66 258.22 317.208C255.327 318.242 252.21 318.305 249.2 318.641C252.434 316.256 256.097 314.561 259.492 312.421C263.568 309.91 267.124 306.655 271.047 303.917C274.218 301.55 277.666 299.51 280.389 296.591C268.969 302.303 258.785 310.463 246.8 315.068C249.514 312.829 252.299 310.689 255.336 308.921C259.985 306.192 264.123 302.702 268.458 299.501C269.694 298.667 270.375 297.325 270.993 296.02C268.226 297.661 265.852 299.973 262.824 301.16C260.227 302.257 257.226 302.493 254.987 304.352C252.497 306.265 250.177 308.377 247.686 310.272C248.313 309.103 248.967 307.951 249.621 306.809C246.889 308.278 244.157 309.846 241.139 310.653C244.847 307.679 249.29 305.839 253.133 303.046C258.65 299.093 264.41 295.222 268.817 289.991C266.783 290.961 264.884 292.167 262.896 293.209C266.004 290.081 270.411 288.068 272.749 284.324C271.047 284.025 269.73 285.657 268.217 286.183C269.453 284.279 271.54 281.912 274.048 282.837C275.194 282.465 276.09 281.631 276.959 280.824C285.612 272.547 293.189 263.09 299.021 252.573C303.598 244.314 307.772 235.619 309.447 226.217C310.961 217.794 312.788 209.335 312.627 200.722C312.483 191.937 312.663 183.07 311.122 174.393C309.975 166.814 307.351 159.624 304.897 152.416C303.338 153.722 301.788 155.036 300.248 156.36C301.179 159.162 302.281 161.909 302.962 164.792C301.224 162.534 300.543 159.715 299.639 157.067C293.225 162.616 286.803 168.174 280.596 173.967C277.962 177.476 273.842 179.081 270.214 181.266C273.546 176.741 277.702 172.943 281.617 168.962C276.672 172.326 271.414 175.264 266.936 179.298C259.627 185.717 252.174 192.109 245.985 199.68C249.818 198.791 252.873 196.189 256.492 194.775C256.169 197.368 254.315 199.199 252.523 200.885C223.144 229.363 193.128 257.152 162.995 284.805C165.002 285.448 166.999 286.119 169.006 286.79C168.459 285.639 167.913 284.496 167.376 283.354C169.758 284.65 172.105 286.01 174.479 287.325C177.685 286.337 181.062 287.37 183.732 289.274C187.915 292.212 191.838 295.666 194.74 299.936C196.738 302.747 197.714 306.265 200.41 308.559C201.745 312.521 201.682 317.145 200.025 321.043C198.645 324.77 195.618 327.48 193.782 330.944C190.951 334.643 186.929 337.544 182.406 338.668C179.934 339.421 177.291 338.297 174.855 339.167C169.212 341.941 162.53 342.277 156.475 340.962C144.705 336.973 135.371 328.36 125.115 321.651C123.395 323.101 121.693 324.579 120.296 326.356C114.743 333.691 107.693 339.638 101.262 346.148C91.0686 355.804 80.9379 365.614 69.607 373.919C63.7579 378.887 56.6458 381.87 50.304 386.095C43.5503 389.694 37.0652 393.801 30.3204 397.419C34.6199 393.874 39.5374 391.227 43.9265 387.818C46.2733 386.231 46.7032 383.203 47.9393 380.827C46.6136 381.19 45.3865 381.779 44.661 383.012C42.9412 385.551 40.0121 386.693 37.3697 387.954C38.0057 387.138 39.2956 385.497 39.9405 384.681C35.4439 386.666 31.6102 389.812 27.4003 392.315C28.2871 390.918 29.2186 389.549 30.1233 388.171C23.1904 392.677 16.974 398.199 10.1844 402.913C10.1665 401.97 10.1396 400.094 10.1307 399.151C14.4481 396.34 19.5269 392.632 19.8851 386.983C17.7085 388.081 15.5409 389.214 13.4628 390.501C12.8806 390.601 11.6982 390.791 11.116 390.891C13.3642 388.135 15.7558 385.488 17.8071 382.568C15.72 383.71 13.7046 384.953 11.6355 386.14C12.2625 385.306 13.5165 383.656 14.1435 382.831C13.3822 383.103 11.8773 383.647 11.1249 383.919C12.6566 382.124 14.1614 380.32 15.4961 378.379C14.3675 378.787 13.2388 379.195 12.1013 379.594C14.3495 376.013 17.6458 373.221 19.5627 369.413C17.7354 370.428 15.9619 371.543 14.1704 372.631C14.7526 371.398 15.3259 370.174 15.8992 368.95C12.9612 370.483 10.5517 372.794 7.89136 374.726C10.3456 370.428 13.9554 366.892 16.0425 362.359C16.8038 360.691 18.237 358.551 16.8218 356.819C15.102 357.626 13.7852 359.068 12.3252 360.265C18.0579 351.089 23.9517 341.978 30.7951 333.609C32.3716 332.05 31.9864 329.919 31.225 328.07C25.9671 331.597 21.8826 336.583 16.6874 340.192C23.9876 328.061 34.593 318.586 44.9386 309.193C55.3201 299.728 65.836 290.399 76.7459 281.568C78.9225 279.782 81.2783 278.186 83.1145 276.028C74.4529 262.918 68.6037 248.149 63.9728 233.153C64.564 233.443 65.7553 234.041 66.3465 234.332C64.7342 230.805 62.6292 227.378 62.4143 223.388C61.3752 214.141 60.8915 204.775 61.5006 195.473C62.9517 198.193 62.674 201.384 62.9338 204.367C63.0771 208.8 63.7937 213.189 64.2326 217.595C64.6446 217.024 65.0567 216.462 65.4597 215.89C64.4476 207.241 65.0746 198.51 65.1194 189.824C65.2268 181.873 65.612 173.704 68.5321 166.224C69.6428 163.133 69.9742 159.814 71.0939 156.732C72.0971 154.13 74.4618 152.026 74.5424 149.107C74.2379 143.459 77.5521 138.617 79.2719 133.449C81.1529 129.424 82.0217 124.854 84.6552 121.218C85.0135 126.785 79.6033 130.747 80.1586 136.178C83.6251 131.074 84.8791 124.8 88.3456 119.695C88.677 125.833 83.0339 130.811 85.0135 137.012C87.1363 134.582 88.0769 131.409 89.9221 128.798C89.4652 131.11 88.8472 133.377 88.3456 135.689C90.4057 133.504 92.3405 131.192 94.4634 129.052C91.3015 141.854 83.9923 153.667 83.8311 167.167C87.4678 159.833 89.0711 151.673 92.4122 144.202C92.7167 144.918 93.0571 145.616 93.4333 146.305C94.3022 143.613 95.3412 140.92 97.07 138.662C96.5504 144.383 94.4455 149.769 93.2273 155.345C95.4218 151.165 96.9177 146.668 98.8345 142.361C98.9868 142.969 99.2914 144.184 99.4436 144.8C103.197 137.529 106.896 130.221 111.482 123.44C112.288 122.306 113.292 121.354 114.474 120.602C111.509 128.744 104.513 134.936 102.928 143.676C103.627 147.946 101.074 151.709 100.823 155.889C102.426 153.214 103.528 150.195 104.048 147.121C103.886 146.704 103.564 145.879 103.403 145.462C106.081 143.984 106.923 140.866 108.356 138.372C111.231 133.014 113.623 127.42 116.4 122.016C119.795 116.912 124.228 112.542 127.265 107.165C125.447 108.58 123.843 110.248 122.276 111.934C121.595 111.563 120.986 110.366 122.312 109.994C124.273 107.655 126.163 105.262 127.99 102.805C128.367 103.022 129.119 103.439 129.495 103.657C134.735 98.915 139.742 93.9013 145.251 89.4768C150.124 85.4785 156.278 83.7831 161.93 81.2717C170.878 77.4094 180.149 74.2543 188.748 69.6123C188.201 69.3856 187.126 68.9232 186.589 68.6965C188.121 68.216 189.661 67.7264 191.193 67.2278C191.507 66.3937 191.829 65.5595 192.151 64.7345C196.791 64.6348 201.019 62.3228 205.659 62.2593C216.336 61.8513 227.228 61.4252 237.636 64.3718C244.578 66.4752 251.932 67.1099 258.579 70.1472C265.144 73.0847 271.755 75.9587 278.087 79.3949C282.602 81.8157 286.794 84.7804 291.219 87.3643C292.93 85.6871 294.73 84.1004 296.566 82.5591C290.251 77.2643 281.366 75.2606 276.556 68.1888C280.273 70.2741 283.686 72.9215 287.833 74.1545C293.064 76.8382 298.268 79.6397 303.329 82.6407C304.252 81.3805 306.357 80.3106 305.282 78.5155C306.607 79.3315 307.521 77.9896 308.462 77.2462C315.269 70.8634 321.736 64.0545 328.965 58.1432C334.948 54.3534 339.579 48.8682 344.846 44.1808C347.73 41.7148 350.194 37.9159 354.403 37.9431C352.057 42.2406 347.865 44.9968 344.622 48.5327C333.058 59.485 322.229 71.1717 311.364 82.8221C312 83.085 313.281 83.6018 313.917 83.8647C319.64 78.3704 324.674 72.0783 331.141 67.4272C335.459 64.1633 338.97 59.9565 343.234 56.62C343.556 56.9736 344.201 57.6899 344.533 58.0434C346.62 56.212 349.02 54.8067 351.528 53.6462C350.776 52.9753 350.05 52.2953 349.343 51.5881C348.035 52.6036 346.718 53.6009 345.357 54.5438C346.817 52.3406 348.581 50.3642 350.597 48.6778C350.283 50.3188 351.492 51.4884 352.173 52.7849C354.027 50.9353 355.953 49.0586 357.117 46.665C355.872 46.4293 354.627 46.2389 353.391 46.0848C355.29 44.3622 357.7 40.2823 360.53 42.7121C361.614 41.2433 362.68 39.7564 363.719 38.2514C363.164 38.2151 362.053 38.1516 361.498 38.1154C363.343 35.477 366.2 33.9992 368.601 31.9864C371.216 28.8313 374.298 26.1205 377.639 23.7632C378.633 22.8928 379.923 22.6027 381.213 22.4757C384.84 18.4321 388.316 14.1255 392.839 11.0429C392.248 13.0557 391.433 14.9778 390.591 16.8908C393.708 14.9597 395.383 11.5688 397.703 8.83979ZM369.281 53.0841C372.193 51.434 375.22 49.3396 376.34 45.976C373.411 47.6533 370.858 50.0468 369.281 53.0841ZM370.652 47.6442C364.83 52.25 359.652 57.6264 354.188 62.6492C348.742 68.0165 342.974 73.0666 337.904 78.8147L340.582 78.452C336.973 82.1058 333.246 85.6417 329.726 89.3862C330.129 89.9483 330.926 91.0635 331.329 91.6256C337.134 86.5303 342.974 81.3261 347.739 75.1881C351.394 69.2859 358.578 66.8651 361.91 60.6818L360.324 59.6391C363.459 55.3598 367.553 51.9327 370.652 47.6442ZM333.031 68.488C336.148 67.0464 338.63 64.4172 340.126 61.3074C337.17 63.03 334.823 65.5958 333.031 68.488ZM217.062 69.7754C220.662 70.9541 224.505 70.5914 228.204 71.1807C232.71 71.353 236.006 75.3785 240.592 75.1881C246.836 75.2062 252.631 77.6542 258.587 79.2045C264.696 80.7821 269.542 85.0433 274.997 88.0081C278.858 90.0843 282.378 92.7498 286.274 94.7354C286.507 94.3818 286.955 93.6565 287.188 93.2938C281.07 87.7814 274.54 82.133 266.658 79.5219C261.337 80.0115 257.083 76.3486 252.264 74.771C240.969 71.0266 229.046 67.5451 217.062 69.7754ZM159.162 89.1686C155.149 91.2267 151.494 94.0191 148.628 97.546C143.961 103.367 138.408 108.38 133.768 114.219C131.161 117.492 128.241 120.502 125.653 123.793C125.599 124.745 126.074 125.851 125.42 126.695C123.028 130.539 120.054 134.138 118.845 138.608C122.338 135.163 124.336 130.512 127.095 126.495C132.039 116.703 139.823 108.825 147.804 101.544C148.037 102.034 148.521 103.022 148.753 103.521C149.676 102.297 150.599 101.082 151.593 99.9123C150.733 104.137 147.49 107.048 145.171 110.438C148.073 109.369 149.577 106.014 153.017 105.96C150.993 109.278 147.679 111.717 146.604 115.606C143.415 116.051 141.453 118.471 140.871 121.563C140.343 121.663 139.286 121.88 138.757 121.989C138.65 122.551 138.444 123.666 138.345 124.229C137.431 124.863 136.491 125.525 136.034 126.595C132.818 132.488 129.827 138.508 126.396 144.284C126.047 143.549 125.357 142.071 125.008 141.328C123.243 143.785 122.41 146.677 121.935 149.642C121.873 150.875 120.914 151.428 119.848 151.673C119.642 152.135 119.23 153.06 119.024 153.522C118.021 154.61 116.883 155.689 116.713 157.267C115.244 164.556 113.632 171.873 113.462 179.344C112.96 178.192 112.476 177.041 111.993 175.898C111.688 177.331 111.411 178.781 111.124 180.232C111.697 180.45 112.844 180.885 113.417 181.102C113.892 180.132 114.366 179.171 114.841 178.21C115.146 179.507 115.665 180.713 116.382 181.819C116.409 190.287 116.955 198.755 118.03 207.15C118.308 210.378 120.798 213.506 119.454 216.752C117.493 210.541 116.453 204.086 114.528 197.875C114.143 199.689 113.901 201.565 114.178 203.424C115.603 214.938 118.747 226.516 125.241 236.226C128.08 234.214 130.713 231.793 133.983 230.487C141.086 227.704 145.986 221.521 151.467 216.471C153.528 214.422 156.654 214.132 158.705 212.064C169.06 202.88 179.522 193.841 189.849 184.629C195.949 179.325 201.243 173.115 207.531 168.038C212.019 165.309 216.139 162.027 219.847 158.282C219.471 158.01 218.701 157.475 218.316 157.203L218.54 156.668L218.925 156.052C220.904 154.275 219.91 157.312 221.451 157.23C224.657 153.967 228.052 150.875 231.608 148.01C234.842 145.888 238.165 143.912 241.13 141.409C249.693 134.347 258.749 127.9 266.918 120.348C269.668 117.737 272.803 115.28 274.272 111.635C272.274 112.605 270.456 113.893 268.754 115.316C268.879 114.836 269.139 113.893 269.265 113.412C266.586 114.917 261.176 114.836 261.517 119.151C260.28 119.441 259.044 119.723 257.808 120.022C258.05 120.412 258.525 121.182 258.767 121.563C255.112 124.763 250.616 126.622 246.531 129.152C246.979 129.541 247.427 129.931 247.893 130.33C248.457 129.895 249.585 129.025 250.15 128.59C248.681 130.865 246.504 132.588 244.086 133.73C244.659 133.232 245.796 132.252 246.37 131.754C245.949 131.346 245.537 130.938 245.125 130.539C244.542 130.874 243.396 131.536 242.823 131.863C248.313 125.117 255.605 120.194 262.036 114.428C265.503 111.817 267.796 107.773 271.88 106.014C268.736 103.63 265.691 101.064 262.197 99.187C253.912 94.5631 244.471 92.8586 235.29 91.0453C226.09 89.2048 216.739 90.728 207.576 91.9157C195.17 93.2757 184.17 99.6947 173.216 105.243C170.618 106.567 167.564 107.066 165.414 109.187C163.784 110.321 162.458 112.478 160.246 112.234L161.589 110.284C160.971 110.248 159.744 110.176 159.126 110.139C161.509 108.208 164.088 106.531 166.623 104.799C166.964 105.071 167.662 105.606 168.012 105.878C177.829 100.565 187.422 94.8351 197.382 89.7942C202.121 87.2827 208.068 88.0353 212.493 85.0343C206.214 84.8167 200.132 86.6662 194.167 88.3889C191.238 90.0571 187.915 90.719 184.565 90.4651C185.29 88.4795 186.204 86.5846 187.162 84.7079C183.902 86.1041 180.588 87.3734 177.139 88.1985C173.511 88.8875 171.209 92.2602 167.653 93.1669C170.063 90.2928 173.735 89.1686 176.664 86.9926C178.277 85.8774 179.674 84.2999 181.645 83.8466C185.693 82.7405 189.67 81.3261 193.316 79.1955C190.7 79.0141 188.228 79.8664 185.837 80.8184C186.329 80.1928 187.323 78.9597 187.816 78.3432C186.472 78.7784 185.102 79.123 183.732 79.4675C185.881 77.4094 188.73 76.3667 191.032 74.5172C179.36 76.5934 169.472 83.7015 159.162 89.1686ZM323.008 79.3859C322.677 81.0178 322.077 82.5682 321.459 84.1186C324.307 81.2264 327.093 78.2344 329.422 74.898C327.129 76.1491 324.979 77.6633 323.008 79.3859ZM164.151 83.8647C168.683 81.725 173.449 79.7395 177.327 76.4937C172.49 77.8355 167.617 80.093 164.151 83.8647ZM291.613 88.5793C292.213 88.4342 293.413 88.1531 294.013 88.0171C295.581 86.7297 299.11 85.3425 297.211 82.8402C295.259 84.6626 293.324 86.5121 291.613 88.5793ZM297.166 88.0715C298.403 88.3526 298.904 87.8539 298.671 86.5937C297.444 86.3308 296.943 86.8204 297.166 88.0715ZM295.68 89.2502C296.181 89.767 296.181 89.767 295.68 89.2502V89.2502ZM287.582 94.7172C286.785 95.8868 288.747 97.3193 289.66 96.2857C290.44 95.098 288.478 93.6565 287.582 94.7172ZM113.086 143.232C116.561 139.478 119.454 134.809 120.753 129.795C117.806 134.011 115.208 138.526 113.086 143.232ZM130.104 132.533C129.648 133.005 129.513 135.018 130.651 134.184C131.493 133.159 132.702 131.699 132.317 130.303C131.134 130.122 130.588 131.699 130.104 132.533ZM88.05 135.625C87.0826 138.526 86.2944 141.482 85.7659 144.501C86.7601 142.507 87.9067 140.593 88.9547 138.635C88.7397 137.602 88.3635 136.622 88.05 135.625ZM89.5548 167.53C91.3015 166.079 91.4806 163.677 91.812 161.582C90.6476 163.377 89.9668 165.427 89.5548 167.53ZM64.5909 217.64C64.9671 222.282 65.818 226.879 67.0183 231.376C68.3171 237.632 71.7836 243.063 73.9154 249.028C73.7811 243.897 71.6044 239.146 70.4937 234.205C69.2576 228.765 66.4361 223.688 66.1853 218.048C65.7822 217.948 64.985 217.74 64.5909 217.64ZM117.457 224.848C118.057 227.486 118.621 230.433 120.816 232.264C120.233 229.581 119.15 227.006 117.457 224.848ZM109.35 235.782C109.7 239.608 110.748 243.362 112.315 246.861C113.596 246.599 114.366 245.384 115.343 244.604C112.414 242.355 110.757 239.119 109.35 235.782ZM294.121 284.324C296.459 282.184 298.421 279.628 299.934 276.826C297.516 278.893 295.617 281.513 294.121 284.324ZM273.985 293.245C277.29 290.797 280.282 287.742 282.118 283.989C278.58 286.219 276.215 289.791 273.985 293.245ZM287.26 290.689C289.607 289.311 291.72 287.434 292.957 284.95C290.735 286.5 288.756 288.404 287.26 290.689ZM285.2 291.541C284.205 292.203 282.253 293.137 282.665 294.578C283.829 294.941 284.725 293.653 285.486 292.964C286.248 292.574 286.48 290.716 285.2 291.541Z" fill="#423259"/>
<path d="M405.532 11.3603C408.514 11.596 404.027 13.9805 405.532 11.3603V11.3603Z" fill="#423259"/>
<path d="M365.654 21.8502C366.997 18.7313 369.55 16.3921 372.085 14.2706C371.566 16.5825 369.711 18.1057 368.466 20.0006C366.684 22.5483 365.618 25.5221 363.809 28.0425C361.892 30.2547 359.437 31.9592 356.804 33.1832C359.661 29.33 363.594 26.2836 365.654 21.8502Z" fill="#423259"/>
<path d="M402.844 20.9254C403.355 20.0097 404.206 18.6678 405.388 18.7857C405.666 19.9825 404.6 21.1248 403.865 21.959C403.077 22.1221 402.737 21.7776 402.844 20.9254Z" fill="#423259"/>
<path d="M400.847 23.2011C401.617 23.0197 401.967 23.3643 401.895 24.2346C401.393 25.1504 400.542 26.5285 399.378 26.4106C399.154 25.2048 400.112 24.0624 400.847 23.2011Z" fill="#423259"/>
<path d="M384.133 32.6393C384.804 31.6963 385.861 30.418 387.133 30.5812C387.375 32.0771 385.503 33.564 384.222 34.0355C384.204 33.6819 384.159 32.9838 384.133 32.6393Z" fill="#423259"/>
<path d="M339.848 41.2614C341.496 38.5324 343.968 36.4743 346.655 34.8514C345.142 37.6711 342.768 39.983 339.848 41.2614Z" fill="#423259"/>
<path d="M214.177 40.9804C216.228 38.7682 219.614 38.7228 222.284 39.6204C219.65 40.4364 216.918 40.8172 214.177 40.9804Z" fill="#423259"/>
<path d="M206.304 47.481C210.738 43.8091 216.497 42.7846 221.961 41.7329C225.275 41.4428 228.554 42.4401 231.841 42.8118C231.438 43.664 231.053 44.5163 230.668 45.3685C231.223 45.5861 232.343 46.0213 232.898 46.2389C226.771 46.3477 220.662 47.0277 214.545 47.0549C214.079 46.6832 213.165 45.9216 212.699 45.5408C212.422 45.9397 211.857 46.7285 211.571 47.1184C209.815 47.2634 208.06 47.3994 206.304 47.481Z" fill="#423259"/>
<path d="M195.681 48.1791C197.633 48.0159 199.586 47.8527 201.548 47.7439C200.894 50.7359 197.024 49.5482 194.839 50.2735C195.045 49.7476 195.475 48.705 195.681 48.1791Z" fill="#423259"/>
<path d="M180.543 53.5737C184.242 50.9807 188.774 50.3098 193.137 49.793C189.034 51.3433 184.824 52.6036 180.543 53.5737Z" fill="#423259"/>
<path d="M206.483 51.8873C213.237 50.9081 220.322 48.9225 227.085 50.6814C223.663 52.6126 219.605 52.8393 215.79 52.386C215.369 52.0596 214.518 51.4067 214.097 51.0804C213.022 51.7331 211.965 52.4222 211.114 53.356C209.555 52.9027 208.015 52.4041 206.483 51.8873Z" fill="#423259"/>
<path d="M189.572 59.9564C196.836 57.2456 204.405 54.6798 212.261 54.9608C204.736 56.8013 197.177 58.533 189.572 59.9564Z" fill="#423259"/>
<path d="M344.676 60.8178C345.016 61.1805 345.357 61.5522 345.706 61.933C344.192 63.0209 342.893 64.3809 341.827 65.9131C341.46 65.5504 341.093 65.1878 340.744 64.8342C342.499 64.0001 343.834 62.5767 344.676 60.8178Z" fill="#423259"/>
<path d="M143.307 71.3439C146.021 69.6122 148.646 67.4998 151.933 67.0464C144.705 72.5317 136.249 76.5481 130.239 83.5565C125.249 89.1595 120.001 94.5178 114.886 100.012C114.958 99.3321 115.092 97.9903 115.164 97.3194C113.417 99.2958 111.715 101.354 109.664 103.031C111.706 99.3593 114.913 96.5759 117.636 93.448C121.461 89.1686 125.679 85.27 129.818 81.2989C133.714 77.219 138.65 74.4175 143.307 71.3439Z" fill="#423259"/>
<path d="M297.937 73.7828C300.104 74.5988 302.165 75.8046 303.634 77.6542C301.421 76.8926 299.486 75.5326 297.937 73.7828Z" fill="#423259"/>
<path d="M112.88 87.7905C114.241 86.0316 115.603 84.2727 117.125 82.6498C115.28 86.6572 114.062 91.3989 110.121 93.874C109.503 92.7407 108.786 91.6709 107.98 90.6736C109.35 88.7425 110.784 86.8657 112.324 85.0706C112.468 85.7505 112.745 87.1105 112.88 87.7905Z" fill="#423259"/>
<path d="M140.656 83.221C142.25 83.7287 140.065 86.503 138.873 85.5964C138.372 84.4993 139.724 83.4658 140.656 83.221Z" fill="#423259"/>
<path d="M136.715 86.6663C135.631 88.4795 134.556 90.4651 132.523 91.3264C133.652 89.5403 135.138 88.0443 136.715 86.6663Z" fill="#423259"/>
<path d="M333.157 87.5819C333.605 88.0982 333.605 88.0982 333.157 87.5819V87.5819Z" fill="#423259"/>
<path d="M171.756 96.0953C173.601 95.5876 175.437 95.0073 177.291 94.5177C175.5 95.8687 173.61 97.0745 171.729 98.2894C171.738 97.7364 171.747 96.6393 171.756 96.0953Z" fill="#423259"/>
<path d="M117.743 106.567C119.194 103.194 121.837 100.529 124.524 98.1353C122.831 101.354 120.332 104.065 117.743 106.567Z" fill="#423259"/>
<path d="M101.172 116.15C103.215 113.34 104.746 110.094 107.389 107.782C105.956 110.756 103.94 113.394 102.202 116.187C101.943 116.178 101.432 116.159 101.172 116.15Z" fill="#423259"/>
<path d="M158.168 110.393C158.723 111.001 159.269 111.617 159.816 112.243C157.388 115.67 153.698 117.819 150.93 120.919C147.473 124.419 144.597 128.499 140.979 131.826C140.584 131.89 139.778 132.008 139.384 132.071C138.229 134.383 136.921 136.613 135.497 138.762C132.066 144.021 131.314 150.458 128.429 155.979C125.671 160.794 125.921 166.877 122.392 171.32C122.383 169.534 123.055 167.893 123.655 166.261C125.285 161.909 124.855 156.995 127.023 152.806C129.012 149.116 129.836 144.936 131.753 141.219C138.551 129.396 147.24 118.553 158.168 110.393Z" fill="#423259"/>
<path d="M120.43 113.095C120.601 113.385 120.601 113.385 120.43 113.095V113.095Z" fill="#423259"/>
<path d="M115.486 119.65C114.895 118.39 116.203 116.196 117.636 116.495C118.03 117.683 116.803 119.813 115.486 119.65Z" fill="#423259"/>
<path d="M241.586 127.257C242.151 127.556 243.279 128.163 243.844 128.463C242.527 130.131 241.076 131.835 238.828 132.071C239.607 130.385 240.547 128.789 241.586 127.257Z" fill="#423259"/>
<path d="M103.224 133.803C104.603 134.564 102.605 138.037 101.217 138.01C100.966 136.468 102.023 134.7 103.224 133.803Z" fill="#423259"/>
<path d="M220.25 148.309C222.74 145.834 225.974 144.265 229.369 143.522C226.467 147.194 223.054 150.403 219.596 153.522C218.378 151.754 218.468 149.651 220.25 148.309Z" fill="#423259"/>
<path d="M302.908 166.823C304.368 170.431 304.682 174.384 305.891 178.083C306.366 178.274 307.324 178.645 307.799 178.836C307.494 180.205 306.769 181.402 306.16 182.644C308.005 190.667 308.73 198.918 307.745 207.114C308.023 213.814 306.016 220.206 305.138 226.77C304.691 226.135 304.261 225.501 303.84 224.866C306.715 211.946 307.405 198.483 305.335 185.382C304.655 179.18 303.257 173.06 302.908 166.823Z" fill="#423259"/>
<path d="M303.41 226.335C303.84 226.97 304.27 227.622 304.691 228.275C302.792 237.704 298.671 246.453 294.22 254.876C290.789 260.488 286.83 265.756 283.336 271.341C282.799 271.259 281.724 271.096 281.196 271.024C280.506 271.767 279.816 272.519 279.109 273.254C280.56 270.579 282.477 268.222 284.402 265.901C288.989 260.298 292.554 253.924 295.814 247.46C299.074 240.732 302.532 233.887 303.41 226.335Z" fill="#423259"/>
<path d="M272.606 280.942C274.478 277.896 277.407 275.711 280.389 273.879C278.285 276.717 275.526 279.002 272.606 280.942Z" fill="#423259"/>
<path d="M258.767 293.898C258.677 292.466 260.8 291.115 262.117 291.396C262.17 292.837 260.092 294.116 258.767 293.898Z" fill="#423259"/>
<path d="M251.726 300.562C254.019 298.042 256.957 296.192 260.056 294.859C257.826 297.452 254.763 299.13 251.726 300.562Z" fill="#423259"/>
<path d="M294.838 317.634C295.939 317.48 296.369 317.951 296.11 319.049C295.76 319.049 295.053 319.058 294.703 319.067C294.739 318.704 294.802 317.988 294.838 317.634Z" fill="#423259"/>
<path d="M235.953 325.259C235.988 325.531 236.051 326.066 236.087 326.338C234.215 326.991 232.352 327.653 230.444 328.133C232.011 326.719 234.027 326.021 235.953 325.259Z" fill="#423259"/>
<path d="M0 409.024C0.0447864 407.637 1.99747 406.259 3.32315 406.513C3.39481 407.963 1.35255 409.405 0 409.024Z" fill="#423259"/>
<path d="M126.916 429.197C129.898 429.188 132.89 429.188 135.873 429.197C135.953 454.61 135.703 480.023 135.998 505.428C135.532 509.997 140.423 511.42 143.97 511.756C143.881 514.168 143.773 516.579 143.684 519C139.312 518.773 134.35 518.9 130.875 515.763C127.319 512.445 126.942 507.223 126.916 502.644C126.916 478.156 126.916 453.676 126.916 429.197Z" fill="#423259"/>
<path d="M100.402 435.172C103.788 433.449 108.455 436.142 108.123 440.113C108.276 444.129 103.439 446.976 100.08 444.8C96.3177 442.905 96.461 436.749 100.402 435.172Z" fill="#423259"/>
<path d="M166.238 460.812C174.819 453.948 188.694 455.245 195.68 463.831C201.198 470.531 202.81 479.624 202.595 488.129C189.294 488.138 175.992 488.111 162.691 488.138C162.933 494.829 164.339 502.064 169.31 506.878C173.287 510.895 179.468 511.466 184.717 510.26C189.939 508.927 193.853 504.902 197.248 500.903C198.977 502.581 200.732 504.231 202.524 505.854C198.224 511.511 192.626 516.706 185.595 518.402C178.053 519.87 169.606 518.637 163.658 513.424C156.501 507.277 153.536 497.386 153.814 488.129C154.092 477.893 158.06 467.212 166.238 460.812ZM172.607 466.505C167.976 469.524 165.539 474.81 163.963 479.96C173.762 479.969 183.561 479.987 193.369 479.951C192.178 475.345 190.584 470.476 186.795 467.385C182.881 464.066 176.861 463.622 172.607 466.505Z" fill="#423259"/>
<path d="M60.4795 457.91C65.3164 456.723 71.2372 457.185 74.6499 461.292C78.0357 465.445 78.4567 471.111 78.5463 476.27C78.5553 490.196 78.5463 504.122 78.5463 518.048C75.5546 518.048 72.5718 518.048 69.589 518.048C69.5622 503.823 69.6428 489.607 69.5532 475.39C69.3024 472.417 69.4726 468.464 66.5973 466.705C63.7399 465.979 60.7213 466.841 57.9714 467.666C51.2535 470.032 45.6194 474.747 40.7466 479.869C39.7255 480.812 40.1465 482.344 40.0032 483.587C40.0569 495.074 40.0211 506.561 40.03 518.048C37.0473 518.039 34.0555 518.048 31.0727 518.048C31.1086 498.211 30.9921 478.382 31.1354 458.545C34.0824 458.59 37.0293 458.59 39.9852 458.554C40.0479 462.734 40.0211 466.913 40.0569 471.102C45.9329 465.463 52.4358 459.905 60.4795 457.91Z" fill="#423259"/>
<path d="M249.433 457.928C254.091 456.795 259.716 457.103 263.21 460.821C266.81 464.701 267.393 470.35 267.527 475.427C267.572 489.634 267.527 503.841 267.545 518.048C264.553 518.048 261.57 518.048 258.588 518.048C258.534 503.515 258.695 488.981 258.516 474.448C258.247 471.655 258.184 467.566 255.023 466.514C246.074 466.007 238.237 471.646 232.002 477.566C230.928 478.827 229.02 479.815 229.064 481.701C228.966 493.813 229.064 505.935 229.029 518.048C226.037 518.048 223.054 518.048 220.071 518.048C220.107 498.211 219.991 478.382 220.134 458.545C223.081 458.59 226.019 458.59 228.966 458.554C229.055 462.734 229.029 466.913 229.038 471.102C234.922 465.49 241.399 459.923 249.433 457.928Z" fill="#423259"/>
<path d="M293.306 459.841C302.478 455.118 314.203 457.285 322.014 463.785C320.231 465.698 318.422 467.584 316.622 469.488C311.686 465.299 304.431 463.096 298.304 465.771C293.467 467.82 291.523 475.817 296.289 478.981C303.311 483.441 312.259 483.677 318.968 488.782C327.46 494.983 326.69 509.943 317.679 515.337C306.186 522.5 289.526 518.592 282.038 507.268C284.008 505.582 285.988 503.904 287.949 502.218C290.592 506.171 294.336 509.444 298.94 510.75C303.804 512.264 309.716 512.173 313.746 508.673C317.517 505.518 317.974 498.709 313.728 495.754C306.661 490.658 297.041 490.831 290.323 485.082C282.566 478.645 284.295 464.284 293.306 459.841Z" fill="#423259"/>
<path d="M356.625 457.901C364.74 456.442 374.154 457.738 380.093 464.03C386.085 470.413 387.528 479.688 387.554 488.165C387.519 496.624 386.076 505.863 380.093 512.227C374.728 518.003 366.37 519.544 358.873 518.719C352.415 518.202 346.109 514.848 342.544 509.299C338.146 502.544 337.277 494.158 337.456 486.261C337.662 479.18 338.97 471.746 343.261 465.952C346.44 461.591 351.385 458.799 356.625 457.901ZM358.452 465.1C354.833 466.043 351.627 468.5 349.844 471.827C346.7 477.612 346.243 484.421 346.494 490.885C346.79 496.406 347.874 502.236 351.358 506.661C356.786 513.343 368.189 513.343 373.599 506.642C377.504 501.738 378.382 495.146 378.543 489.045C378.588 482.526 377.872 475.508 373.984 470.078C370.491 465.318 363.979 463.622 358.452 465.1Z" fill="#423259"/>
<path d="M98.2792 458.4C101.244 458.418 104.209 458.418 107.183 458.4C107.245 478.283 107.192 498.165 107.21 518.048C104.227 518.048 101.235 518.048 98.2523 518.048C98.2702 498.165 98.2165 478.283 98.2792 458.4Z" fill="#423259"/>
</svg>
