<svg width="411" height="403" viewBox="0 0 411 403" fill="none" xmlns="http://www.w3.org/2000/svg">
<path d="M390.703 8.83979C393.256 5.7844 395.629 2.53861 398.711 0C395.45 6.95397 391.178 13.8263 384.782 18.2236C381.495 21.2064 378.843 24.833 375.323 27.562C372.466 33.5005 365.614 35.7762 362.891 41.7964C362.461 41.47 361.61 40.8081 361.18 40.4817C355.071 46.1029 348.917 51.6788 342.719 57.1912C341.635 58.1432 340.766 59.3037 340.085 60.573C339.62 59.8295 339.181 59.0679 338.742 58.3154C336.198 60.6274 333.672 63.0028 331.746 65.8859C332.337 66.3846 332.92 66.8832 333.502 67.4C330.832 69.1861 328.62 71.5615 326.685 74.1182C330.967 71.5071 334.487 67.8352 338.186 64.4806C345.603 57.5267 352.787 50.3279 360.257 43.4283C360.472 43.7456 360.893 44.3803 361.099 44.6976C364.207 42.1499 367.315 39.6023 370.262 36.8642C370.253 37.3175 370.236 38.206 370.227 38.6594C372.188 37.5986 374.293 36.5287 375.332 34.3981C375.825 35.1053 376.309 35.8306 376.801 36.5469C378.924 34.1715 381.495 32.2856 383.877 30.1822C386.448 27.3354 389.055 24.4794 392.199 22.2581C390.362 26.7551 386.126 29.5294 383.949 33.8088C382.758 35.9757 381.154 37.8615 379.417 39.5932L380.106 36.3293C378.145 38.197 375.762 39.8289 374.526 42.3131L374.992 43.7003C369.761 49.666 363.007 54.3081 358.761 61.1079C365.506 57.572 370.28 51.3887 375.807 46.2933C379.202 43.3195 381.163 39.0401 384.818 36.3293C390.801 31.4878 394.895 24.7605 400.502 19.5382C400.126 23.7541 396.883 26.6372 394.984 30.146C397.098 28.2964 398.791 26.0298 400.789 24.0533C400.099 27.1994 398.639 30.0825 397.797 33.1832C400.081 31.2883 401.935 28.9401 403.843 26.6644C402.876 28.5956 401.864 30.5086 400.959 32.467C404.515 29.8286 407.426 26.4287 411 23.7994C408.304 27.417 405.07 30.5539 402.025 33.8541C399.042 36.9186 396.821 40.6177 394.196 43.9814C393.426 49.2218 388.741 52.4313 385.929 56.5565C382.525 61.5431 378.279 65.895 375.243 71.1354C371.749 75.0793 370.218 80.3651 366.456 84.1367C364.028 86.4577 364.028 90.2747 361.448 92.4416C356.262 97.5007 350.718 102.197 345.728 107.447C344.009 112.905 339.037 116.005 334.989 119.577C338.849 127.937 343.829 135.852 346.042 144.9C350.109 158.019 353.02 171.519 354.318 185.219C354.471 192.227 355.187 199.19 355.805 206.162C355.572 214.748 354.381 223.37 351.801 231.575C350.243 237.07 349.267 242.718 347.995 248.294C347.377 250.334 348.863 252.492 347.681 254.45C344.985 259.872 343.704 266.155 339.557 270.715C339.691 271.83 339.763 272.955 339.772 274.088C333.636 286.844 325.324 298.513 315.489 308.604C315.569 308.994 315.739 309.783 315.829 310.172C313.16 313.201 309.81 315.549 307.257 318.695C306.101 320.762 302.94 319.393 301.918 321.506C299.787 325.776 295.111 327.598 291.143 329.674C289.217 330.363 289.28 333.165 287.264 333.682C284.864 334.38 282.965 335.948 281.236 337.698C278.262 339.53 274.554 339.62 271.526 341.388C266.591 344.562 260.849 345.967 255.376 347.898C249.93 349.086 244.538 350.908 238.913 351.035C254.911 345.958 271.473 340.872 284.918 330.336C283.538 330.744 282.177 331.207 280.824 331.669C276.847 330.382 275.7 335.649 272.144 336.012C264.916 338.242 258.628 342.884 251.319 344.852C255.744 341.18 261.458 339.548 265.919 335.885C268.839 333.328 272.807 332.784 275.924 330.581C282.562 325.803 289.36 321.052 294.681 314.742C293.337 315.313 292.092 316.093 290.964 317.036C290.578 316.682 290.202 316.329 289.835 315.975C293.66 313.844 296.571 310.472 299.813 307.579C306.961 300.943 313.312 293.445 318.669 285.258C318.337 285.222 317.674 285.158 317.343 285.131C314.082 289.483 311.091 294.052 307.57 298.205C303.817 301.995 299.303 304.896 295.272 308.35C293.221 310.408 291.035 314.026 287.739 313.455C289.181 312.095 290.686 310.816 292.048 309.375C291.071 309.647 290.158 310.064 289.316 310.626C278.164 319.556 266.251 327.879 252.994 333.238C256.872 330.164 261.494 328.278 265.632 325.613C269.171 323.246 273.443 321.596 275.763 317.779C267.254 321.868 259.264 327.208 250.244 330.146C252.403 328.487 254.794 327.208 257.034 325.667C253.155 325.912 250.011 328.423 246.491 329.792C241.887 331.606 237.328 333.636 232.509 334.77C235.841 332.168 239.925 330.88 243.642 328.976C243.114 328.84 242.039 328.559 241.502 328.423C245.497 325.794 249.115 322.612 253.388 320.427C258.798 317.589 263.698 313.926 268.597 310.308C271.58 308.015 275.163 306.201 277.017 302.729C273.864 303.717 271.553 306.138 269.108 308.223C263.787 312.385 257.374 314.66 251.22 317.208C248.327 318.242 245.21 318.305 242.2 318.641C245.434 316.256 249.097 314.561 252.492 312.421C256.568 309.91 260.124 306.655 264.047 303.917C267.218 301.55 270.666 299.51 273.389 296.591C261.969 302.303 251.785 310.463 239.8 315.068C242.514 312.829 245.299 310.689 248.336 308.921C252.985 306.192 257.123 302.702 261.458 299.501C262.694 298.667 263.375 297.325 263.993 296.02C261.226 297.661 258.852 299.973 255.824 301.16C253.227 302.257 250.226 302.493 247.987 304.352C245.497 306.265 243.177 308.377 240.686 310.272C241.313 309.103 241.967 307.951 242.621 306.809C239.889 308.278 237.157 309.846 234.139 310.653C237.847 307.679 242.29 305.839 246.133 303.046C251.65 299.093 257.41 295.222 261.817 289.991C259.783 290.961 257.884 292.167 255.896 293.209C259.004 290.081 263.411 288.068 265.749 284.324C264.047 284.025 262.73 285.657 261.217 286.183C262.453 284.279 264.54 281.912 267.048 282.837C268.194 282.465 269.09 281.631 269.959 280.824C278.612 272.547 286.189 263.09 292.021 252.573C296.598 244.314 300.772 235.619 302.447 226.217C303.961 217.794 305.788 209.335 305.627 200.722C305.483 191.937 305.663 183.07 304.122 174.393C302.975 166.814 300.351 159.624 297.897 152.416C296.338 153.722 294.788 155.036 293.248 156.36C294.179 159.162 295.281 161.909 295.962 164.792C294.224 162.534 293.543 159.715 292.639 157.067C286.225 162.616 279.803 168.174 273.596 173.967C270.962 177.476 266.842 179.081 263.214 181.266C266.546 176.741 270.702 172.943 274.617 168.962C269.672 172.326 264.414 175.264 259.936 179.298C252.627 185.717 245.174 192.109 238.985 199.68C242.818 198.791 245.873 196.189 249.492 194.775C249.169 197.368 247.315 199.199 245.523 200.885C216.144 229.363 186.128 257.152 155.995 284.805C158.002 285.448 159.999 286.119 162.006 286.79C161.459 285.639 160.913 284.496 160.376 283.354C162.758 284.65 165.105 286.01 167.479 287.325C170.685 286.337 174.062 287.37 176.732 289.274C180.915 292.212 184.838 295.666 187.74 299.936C189.738 302.747 190.714 306.265 193.41 308.559C194.745 312.521 194.682 317.145 193.025 321.043C191.645 324.77 188.618 327.48 186.782 330.944C183.951 334.643 179.929 337.544 175.406 338.668C172.934 339.421 170.291 338.297 167.855 339.167C162.212 341.941 155.53 342.277 149.475 340.962C137.705 336.973 128.371 328.36 118.115 321.651C116.395 323.101 114.693 324.579 113.296 326.356C107.743 333.691 100.693 339.638 94.262 346.148C84.0686 355.804 73.9379 365.614 62.607 373.919C56.7579 378.887 49.6458 381.87 43.304 386.095C36.5503 389.694 30.0652 393.801 23.3204 397.419C27.6199 393.874 32.5374 391.227 36.9265 387.818C39.2733 386.231 39.7032 383.203 40.9393 380.827C39.6136 381.19 38.3865 381.779 37.661 383.012C35.9412 385.551 33.0121 386.693 30.3697 387.954C31.0057 387.138 32.2956 385.497 32.9405 384.681C28.4439 386.666 24.6102 389.812 20.4003 392.315C21.2871 390.918 22.2186 389.549 23.1233 388.171C16.1904 392.677 9.974 398.199 3.1844 402.913C3.1665 401.97 3.1396 400.094 3.1307 399.151C7.4481 396.34 12.5269 392.632 12.8851 386.983C10.7085 388.081 8.5409 389.214 6.4628 390.501C5.8806 390.601 4.6982 390.791 4.116 390.891C6.3642 388.135 8.7558 385.488 10.8071 382.568C8.72 383.71 6.7046 384.953 4.6355 386.14C5.2625 385.306 6.5165 383.656 7.1435 382.831C6.3822 383.103 4.8773 383.647 4.1249 383.919C5.6566 382.124 7.1614 380.32 8.4961 378.379C7.3675 378.787 6.2388 379.195 5.1013 379.594C7.3495 376.013 10.6458 373.221 12.5627 369.413C10.7354 370.428 8.9619 371.543 7.1704 372.631C7.7526 371.398 8.3259 370.174 8.8992 368.95C5.9612 370.483 3.5517 372.794 0.891357 374.726C3.3456 370.428 6.9554 366.892 9.0425 362.359C9.8038 360.691 11.237 358.551 9.8218 356.819C8.102 357.626 6.7852 359.068 5.3252 360.265C11.0579 351.089 16.9517 341.978 23.7951 333.609C25.3716 332.05 24.9864 329.919 24.225 328.07C18.9671 331.597 14.8826 336.583 9.6874 340.192C16.9876 328.061 27.593 318.586 37.9386 309.193C48.3201 299.728 58.836 290.399 69.7459 281.568C71.9225 279.782 74.2783 278.186 76.1145 276.028C67.4529 262.918 61.6037 248.149 56.9728 233.153C57.564 233.443 58.7553 234.041 59.3465 234.332C57.7342 230.805 55.6292 227.378 55.4143 223.388C54.3752 214.141 53.8915 204.775 54.5006 195.473C55.9517 198.193 55.674 201.384 55.9338 204.367C56.0771 208.8 56.7937 213.189 57.2326 217.595C57.6446 217.024 58.0567 216.462 58.4597 215.89C57.4476 207.241 58.0746 198.51 58.1194 189.824C58.2268 181.873 58.612 173.704 61.5321 166.224C62.6428 163.133 62.9742 159.814 64.0939 156.732C65.0971 154.13 67.4618 152.026 67.5424 149.107C67.2379 143.459 70.5521 138.617 72.2719 133.449C74.1529 129.424 75.0217 124.854 77.6552 121.218C78.0135 126.785 72.6033 130.747 73.1586 136.178C76.6251 131.074 77.8791 124.8 81.3456 119.695C81.677 125.833 76.0339 130.811 78.0135 137.012C80.1363 134.582 81.0769 131.409 82.9221 128.798C82.4652 131.11 81.8472 133.377 81.3456 135.689C83.4057 133.504 85.3405 131.192 87.4634 129.052C84.3015 141.854 76.9923 153.667 76.8311 167.167C80.4678 159.833 82.0711 151.673 85.4122 144.202C85.7167 144.918 86.0571 145.616 86.4333 146.305C87.3022 143.613 88.3412 140.92 90.07 138.662C89.5504 144.383 87.4455 149.769 86.2273 155.345C88.4218 151.165 89.9177 146.668 91.8345 142.361C91.9868 142.969 92.2914 144.184 92.4436 144.8C96.197 137.529 99.896 130.221 104.482 123.44C105.288 122.306 106.292 121.354 107.474 120.602C104.509 128.744 97.513 134.936 95.928 143.676C96.627 147.946 94.074 151.709 93.823 155.889C95.426 153.214 96.528 150.195 97.048 147.121C96.886 146.704 96.564 145.879 96.403 145.462C99.081 143.984 99.923 140.866 101.356 138.372C104.231 133.014 106.623 127.42 109.4 122.016C112.795 116.912 117.228 112.542 120.265 107.165C118.447 108.58 116.843 110.248 115.276 111.934C114.595 111.563 113.986 110.366 115.312 109.994C117.273 107.655 119.163 105.262 120.99 102.805C121.367 103.022 122.119 103.439 122.495 103.657C127.735 98.915 132.742 93.9013 138.251 89.4768C143.124 85.4785 149.278 83.7831 154.93 81.2717C163.878 77.4094 173.149 74.2543 181.748 69.6123C181.201 69.3856 180.126 68.9232 179.589 68.6965C181.121 68.216 182.661 67.7264 184.193 67.2278C184.507 66.3937 184.829 65.5595 185.151 64.7345C189.791 64.6348 194.019 62.3228 198.659 62.2593C209.336 61.8513 220.228 61.4252 230.636 64.3718C237.578 66.4752 244.932 67.1099 251.579 70.1472C258.144 73.0847 264.755 75.9587 271.087 79.3949C275.602 81.8157 279.794 84.7804 284.219 87.3643C285.93 85.6871 287.73 84.1004 289.566 82.5591C283.251 77.2643 274.366 75.2606 269.556 68.1888C273.273 70.2741 276.686 72.9215 280.833 74.1545C286.064 76.8382 291.268 79.6397 296.329 82.6407C297.252 81.3805 299.357 80.3106 298.282 78.5155C299.607 79.3315 300.521 77.9896 301.462 77.2462C308.269 70.8634 314.736 64.0545 321.965 58.1432C327.948 54.3534 332.579 48.8682 337.846 44.1808C340.73 41.7148 343.194 37.9159 347.403 37.9431C345.057 42.2406 340.865 44.9968 337.622 48.5327C326.058 59.485 315.229 71.1717 304.364 82.8221C305 83.085 306.281 83.6018 306.917 83.8647C312.64 78.3704 317.674 72.0783 324.141 67.4272C328.459 64.1633 331.97 59.9565 336.234 56.62C336.556 56.9736 337.201 57.6899 337.533 58.0434C339.62 56.212 342.02 54.8067 344.528 53.6462C343.776 52.9753 343.05 52.2953 342.343 51.5881C341.035 52.6036 339.718 53.6009 338.357 54.5438C339.817 52.3406 341.581 50.3642 343.597 48.6778C343.283 50.3188 344.492 51.4884 345.173 52.7849C347.027 50.9353 348.953 49.0586 350.117 46.665C348.872 46.4293 347.627 46.2389 346.391 46.0848C348.29 44.3622 350.7 40.2823 353.53 42.7121C354.614 41.2433 355.68 39.7564 356.719 38.2514C356.164 38.2151 355.053 38.1516 354.498 38.1154C356.343 35.477 359.2 33.9992 361.601 31.9864C364.216 28.8313 367.298 26.1205 370.639 23.7632C371.633 22.8928 372.923 22.6027 374.213 22.4757C377.84 18.4321 381.316 14.1255 385.839 11.0429C385.248 13.0557 384.433 14.9778 383.591 16.8908C386.708 14.9597 388.383 11.5688 390.703 8.83979ZM362.281 53.0841C365.193 51.434 368.22 49.3396 369.34 45.976C366.411 47.6533 363.858 50.0468 362.281 53.0841ZM363.652 47.6442C357.83 52.25 352.652 57.6264 347.188 62.6492C341.742 68.0165 335.974 73.0666 330.904 78.8147L333.582 78.452C329.973 82.1058 326.246 85.6417 322.726 89.3862C323.129 89.9483 323.926 91.0635 324.329 91.6256C330.134 86.5303 335.974 81.3261 340.739 75.1881C344.394 69.2859 351.578 66.8651 354.91 60.6818L353.324 59.6391C356.459 55.3598 360.553 51.9327 363.652 47.6442ZM326.031 68.488C329.148 67.0464 331.63 64.4172 333.126 61.3074C330.17 63.03 327.823 65.5958 326.031 68.488ZM210.062 69.7754C213.662 70.9541 217.505 70.5914 221.204 71.1807C225.71 71.353 229.006 75.3785 233.592 75.1881C239.836 75.2062 245.631 77.6542 251.587 79.2045C257.696 80.7821 262.542 85.0433 267.997 88.0081C271.858 90.0843 275.378 92.7498 279.274 94.7354C279.507 94.3818 279.955 93.6565 280.188 93.2938C274.07 87.7814 267.54 82.133 259.658 79.5219C254.337 80.0115 250.083 76.3486 245.264 74.771C233.969 71.0266 222.046 67.5451 210.062 69.7754ZM152.162 89.1686C148.149 91.2267 144.494 94.0191 141.628 97.546C136.961 103.367 131.408 108.38 126.768 114.219C124.161 117.492 121.241 120.502 118.653 123.793C118.599 124.745 119.074 125.851 118.42 126.695C116.028 130.539 113.054 134.138 111.845 138.608C115.338 135.163 117.336 130.512 120.095 126.495C125.039 116.703 132.823 108.825 140.804 101.544C141.037 102.034 141.521 103.022 141.753 103.521C142.676 102.297 143.599 101.082 144.593 99.9123C143.733 104.137 140.49 107.048 138.171 110.438C141.073 109.369 142.577 106.014 146.017 105.96C143.993 109.278 140.679 111.717 139.604 115.606C136.415 116.051 134.453 118.471 133.871 121.563C133.343 121.663 132.286 121.88 131.757 121.989C131.65 122.551 131.444 123.666 131.345 124.229C130.431 124.863 129.491 125.525 129.034 126.595C125.818 132.488 122.827 138.508 119.396 144.284C119.047 143.549 118.357 142.071 118.008 141.328C116.243 143.785 115.41 146.677 114.935 149.642C114.873 150.875 113.914 151.428 112.848 151.673C112.642 152.135 112.23 153.06 112.024 153.522C111.021 154.61 109.883 155.689 109.713 157.267C108.244 164.556 106.632 171.873 106.462 179.344C105.96 178.192 105.476 177.041 104.993 175.898C104.688 177.331 104.411 178.781 104.124 180.232C104.697 180.45 105.844 180.885 106.417 181.102C106.892 180.132 107.366 179.171 107.841 178.21C108.146 179.507 108.665 180.713 109.382 181.819C109.409 190.287 109.955 198.755 111.03 207.15C111.308 210.378 113.798 213.506 112.454 216.752C110.493 210.541 109.453 204.086 107.528 197.875C107.143 199.689 106.901 201.565 107.178 203.424C108.603 214.938 111.747 226.516 118.241 236.226C121.08 234.214 123.713 231.793 126.983 230.487C134.086 227.704 138.986 221.521 144.467 216.471C146.528 214.422 149.654 214.132 151.705 212.064C162.06 202.88 172.522 193.841 182.849 184.629C188.949 179.325 194.243 173.115 200.531 168.038C205.019 165.309 209.139 162.027 212.847 158.282C212.471 158.01 211.701 157.475 211.316 157.203L211.54 156.668L211.925 156.052C213.904 154.275 212.91 157.312 214.451 157.23C217.657 153.967 221.052 150.875 224.608 148.01C227.842 145.888 231.165 143.912 234.13 141.409C242.693 134.347 251.749 127.9 259.918 120.348C262.668 117.737 265.803 115.28 267.272 111.635C265.274 112.605 263.456 113.893 261.754 115.316C261.879 114.836 262.139 113.893 262.265 113.412C259.586 114.917 254.176 114.836 254.517 119.151C253.28 119.441 252.044 119.723 250.808 120.022C251.05 120.412 251.525 121.182 251.767 121.563C248.112 124.763 243.616 126.622 239.531 129.152C239.979 129.541 240.427 129.931 240.893 130.33C241.457 129.895 242.585 129.025 243.15 128.59C241.681 130.865 239.504 132.588 237.086 133.73C237.659 133.232 238.796 132.252 239.37 131.754C238.949 131.346 238.537 130.938 238.125 130.539C237.542 130.874 236.396 131.536 235.823 131.863C241.313 125.117 248.605 120.194 255.036 114.428C258.503 111.817 260.796 107.773 264.88 106.014C261.736 103.63 258.691 101.064 255.197 99.187C246.912 94.5631 237.471 92.8586 228.29 91.0453C219.09 89.2048 209.739 90.728 200.576 91.9157C188.17 93.2757 177.17 99.6947 166.216 105.243C163.618 106.567 160.564 107.066 158.414 109.187C156.784 110.321 155.458 112.478 153.246 112.234L154.589 110.284C153.971 110.248 152.744 110.176 152.126 110.139C154.509 108.208 157.088 106.531 159.623 104.799C159.964 105.071 160.662 105.606 161.012 105.878C170.829 100.565 180.422 94.8351 190.382 89.7942C195.121 87.2827 201.068 88.0353 205.493 85.0343C199.214 84.8167 193.132 86.6662 187.167 88.3889C184.238 90.0571 180.915 90.719 177.565 90.4651C178.29 88.4795 179.204 86.5846 180.162 84.7079C176.902 86.1041 173.588 87.3734 170.139 88.1985C166.511 88.8875 164.209 92.2602 160.653 93.1669C163.063 90.2928 166.735 89.1686 169.664 86.9926C171.277 85.8774 172.674 84.2999 174.645 83.8466C178.693 82.7405 182.67 81.3261 186.316 79.1955C183.7 79.0141 181.228 79.8664 178.837 80.8184C179.329 80.1928 180.323 78.9597 180.816 78.3432C179.472 78.7784 178.102 79.123 176.732 79.4675C178.881 77.4094 181.73 76.3667 184.032 74.5172C172.36 76.5934 162.472 83.7015 152.162 89.1686ZM316.008 79.3859C315.677 81.0178 315.077 82.5682 314.459 84.1186C317.307 81.2264 320.093 78.2344 322.422 74.898C320.129 76.1491 317.979 77.6633 316.008 79.3859ZM157.151 83.8647C161.683 81.725 166.449 79.7395 170.327 76.4937C165.49 77.8355 160.617 80.093 157.151 83.8647ZM284.613 88.5793C285.213 88.4342 286.413 88.1531 287.013 88.0171C288.581 86.7297 292.11 85.3425 290.211 82.8402C288.259 84.6626 286.324 86.5121 284.613 88.5793ZM290.166 88.0715C291.403 88.3526 291.904 87.8539 291.671 86.5937C290.444 86.3308 289.943 86.8204 290.166 88.0715ZM288.68 89.2502C289.181 89.767 289.181 89.767 288.68 89.2502V89.2502ZM280.582 94.7172C279.785 95.8868 281.747 97.3193 282.66 96.2857C283.44 95.098 281.478 93.6565 280.582 94.7172ZM106.086 143.232C109.561 139.478 112.454 134.809 113.753 129.795C110.806 134.011 108.208 138.526 106.086 143.232ZM123.104 132.533C122.648 133.005 122.513 135.018 123.651 134.184C124.493 133.159 125.702 131.699 125.317 130.303C124.134 130.122 123.588 131.699 123.104 132.533ZM81.05 135.625C80.0826 138.526 79.2944 141.482 78.7659 144.501C79.7601 142.507 80.9067 140.593 81.9547 138.635C81.7397 137.602 81.3635 136.622 81.05 135.625ZM82.5548 167.53C84.3015 166.079 84.4806 163.677 84.812 161.582C83.6476 163.377 82.9668 165.427 82.5548 167.53ZM57.5909 217.64C57.9671 222.282 58.818 226.879 60.0183 231.376C61.3171 237.632 64.7836 243.063 66.9154 249.028C66.7811 243.897 64.6044 239.146 63.4937 234.205C62.2576 228.765 59.4361 223.688 59.1853 218.048C58.7822 217.948 57.985 217.74 57.5909 217.64ZM110.457 224.848C111.057 227.486 111.621 230.433 113.816 232.264C113.233 229.581 112.15 227.006 110.457 224.848ZM102.35 235.782C102.7 239.608 103.748 243.362 105.315 246.861C106.596 246.599 107.366 245.384 108.343 244.604C105.414 242.355 103.757 239.119 102.35 235.782ZM287.121 284.324C289.459 282.184 291.421 279.628 292.934 276.826C290.516 278.893 288.617 281.513 287.121 284.324ZM266.985 293.245C270.29 290.797 273.282 287.742 275.118 283.989C271.58 286.219 269.215 289.791 266.985 293.245ZM280.26 290.689C282.607 289.311 284.72 287.434 285.957 284.95C283.735 286.5 281.756 288.404 280.26 290.689ZM278.2 291.541C277.205 292.203 275.253 293.137 275.665 294.578C276.829 294.941 277.725 293.653 278.486 292.964C279.248 292.574 279.48 290.716 278.2 291.541Z" fill="#423259"/>
</svg>
